{
  "accessors": [
    {
      "bufferView": 2,
      "componentType": 5126,
      "count": 65532,
      "max": [
        115.10157775878906,
        138.3419647216797,
        123.60738372802734
      ],
      "min": [
        -83.85821533203125,
        -114.99469757080078,
        -60.37282943725586
      ],
      "type": "VEC3"
    },
    {
      "bufferView": 2,
      "byteOffset": 786384,
      "componentType": 5126,
      "count": 65532,
      "max": [
        1.0,
        1.0,
        1.0
      ],
      "min": [
        -1.0,
        -1.0,
        -0.9999999403953552
      ],
      "type": "VEC3"
    },
    {
      "bufferView": 1,
      "componentType": 5126,
      "count": 65532,
      "max": [
        0.9953479766845703,
        0.9992190003395081
      ],
      "min": [
        0.0007810000097379088,
        0.0007939999923110008
      ],
      "type": "VEC2"
    },
    {
      "bufferView": 0,
      "componentType": 5125,
      "count": 334308,
      "type": "SCALAR"
    },
    {
      "bufferView": 2,
      "byteOffset": 1572768,
      "componentType": 5126,
      "count": 65532,
      "max": [
        111.73067474365234,
        157.09884643554688,
        124.6386947631836
      ],
      "min": [
        -81.83497619628906,
        -109.59469604492188,
        -81.71150970458984
      ],
      "type": "VEC3"
    },
    {
      "bufferView": 2,
      "byteOffset": 2359152,
      "componentType": 5126,
      "count": 65532,
      "max": [
        1.0,
        1.0,
        1.0
      ],
      "min": [
        -1.0,
        -1.0,
        -1.0
      ],
      "type": "VEC3"
    },
    {
      "bufferView": 1,
      "byteOffset": 524256,
      "componentType": 5126,
      "count": 65532,
      "max": [
        0.9865610003471375,
        0.949999988079071
      ],
      "min": [
        0.041405998170375824,
        0.004282000008970499
      ],
      "type": "VEC2"
    },
    {
      "bufferView": 0,
      "byteOffset": 1337232,
      "componentType": 5125,
      "count": 368217,
      "type": "SCALAR"
    },
    {
      "bufferView": 2,
      "byteOffset": 3145536,
      "componentType": 5126,
      "count": 65532,
      "max": [
        111.01797485351563,
        121.7052993774414,
        115.87809753417969
      ],
      "min": [
        -79.19007873535156,
        -129.85984802246094,
        -82.88450622558594
      ],
      "type": "VEC3"
    },
    {
      "bufferView": 2,
      "byteOffset": 3931920,
      "componentType": 5126,
      "count": 65532,
      "max": [
        0.9999724626541138,
        1.0,
        0.9997917413711548
      ],
      "min": [
        -1.0,
        -1.0,
        -1.0
      ],
      "type": "VEC3"
    },
    {
      "bufferView": 1,
      "byteOffset": 1048512,
      "componentType": 5126,
      "count": 65532,
      "max": [
        0.682483971118927,
        0.9992190003395081
      ],
      "min": [
        0.0007810000097379088,
        0.010444000363349915
      ],
      "type": "VEC2"
    },
    {
      "bufferView": 0,
      "byteOffset": 2810100,
      "componentType": 5125,
      "count": 362301,
      "type": "SCALAR"
    },
    {
      "bufferView": 2,
      "byteOffset": 4718304,
      "componentType": 5126,
      "count": 65532,
      "max": [
        104.91159057617188,
        157.3992156982422,
        124.30416870117188
      ],
      "min": [
        -84.69004821777344,
        -129.76242065429688,
        -82.55493927001953
      ],
      "type": "VEC3"
    },
    {
      "bufferView": 2,
      "byteOffset": 5504688,
      "componentType": 5126,
      "count": 65532,
      "max": [
        0.9998685121536255,
        1.0,
        0.9999428391456604
      ],
      "min": [
        -1.0,
        -0.9999380111694336,
        -1.0
      ],
      "type": "VEC3"
    },
    {
      "bufferView": 1,
      "byteOffset": 1572768,
      "componentType": 5126,
      "count": 65532,
      "max": [
        0.9064890146255493,
        0.9992190003395081
      ],
      "min": [
        0.0021909999195486307,
        0.273377001285553
      ],
      "type": "VEC2"
    },
    {
      "bufferView": 0,
      "byteOffset": 4259304,
      "componentType": 5125,
      "count": 354510,
      "type": "SCALAR"
    },
    {
      "bufferView": 2,
      "byteOffset": 6291072,
      "componentType": 5126,
      "count": 11371,
      "max": [
        105.14178466796875,
        156.8518829345703,
        124.12716674804688
      ],
      "min": [
        -83.23308563232422,
        -105.3261489868164,
        -57.672828674316406
      ],
      "type": "VEC3"
    },
    {
      "bufferView": 2,
      "byteOffset": 6427524,
      "componentType": 5126,
      "count": 11371,
      "max": [
        0.9967291355133057,
        0.9949804544448853,
        1.0
      ],
      "min": [
        -0.9999823570251465,
        -0.9872617721557617,
        -1.0
      ],
      "type": "VEC3"
    },
    {
      "bufferView": 1,
      "byteOffset": 2097024,
      "componentType": 5126,
      "count": 11371,
      "max": [
        0.9037430286407471,
        0.990136981010437
      ],
      "min": [
        0.1487710028886795,
        0.004273000173270702
      ],
      "type": "VEC2"
    },
    {
      "bufferView": 0,
      "byteOffset": 5677344,
      "componentType": 5125,
      "count": 60294,
      "type": "SCALAR"
    }
  ],
  "asset": {
    "extras": {
      "author": "VAR Lab (https://sketchfab.com/varlab)",
      "license": "CC-BY-4.0 (http://creativecommons.org/licenses/by/4.0/)",
      "source": "https://sketchfab.com/3d-models/meta-quest-pro-headset-66159a79cfb549c1bbaa23f17cb43267",
      "title": "Meta Quest Pro Headset"
    },
    "generator": "Sketchfab-15.19.0",
    "version": "2.0"
  },
  "bufferViews": [
    {
      "buffer": 0,
      "byteLength": 5918520,
      "name": "floatBufferViews",
      "target": 34963
    },
    {
      "buffer": 0,
      "byteLength": 2187992,
      "byteOffset": 5918520,
      "byteStride": 8,
      "name": "floatBufferViews",
      "target": 34962
    },
    {
      "buffer": 0,
      "byteLength": 6563976,
      "byteOffset": 8106512,
      "byteStride": 12,
      "name": "floatBufferViews",
      "target": 34962
    }
  ],
  "buffers": [
    {
      "byteLength": 14670488,
      "uri": "scene.bin"
    }
  ],
  "extensionsUsed": [
    "KHR_materials_specular"
  ],
  "images": [
    {
      "uri": "textures/material_0_baseColor.png"
    },
    {
      "uri": "textures/material_0_metallicRoughness.png"
    },
    {
      "uri": "textures/material_0_specularf0.png"
    }
  ],
  "materials": [
    {
      "doubleSided": true,
      "extensions": {
        "KHR_materials_specular": {
          "specularColorFactor": [
            1.0,
            1.0,
            1.0
          ],
          "specularFactor": 1.0,
          "specularTexture": {
            "index": 2
          }
        }
      },
      "name": "material_0",
      "pbrMetallicRoughness": {
        "baseColorTexture": {
          "index": 0
        },
        "metallicRoughnessTexture": {
          "index": 1
        },
        "roughnessFactor": 0.4376586748096509
      }
    }
  ],
  "meshes": [
    {
      "name": "Object_0",
      "primitives": [
        {
          "attributes": {
            "NORMAL": 1,
            "POSITION": 0,
            "TEXCOORD_0": 2
          },
          "indices": 3,
          "material": 0,
          "mode": 4
        }
      ]
    },
    {
      "name": "Object_1",
      "primitives": [
        {
          "attributes": {
            "NORMAL": 5,
            "POSITION": 4,
            "TEXCOORD_0": 6
          },
          "indices": 7,
          "material": 0,
          "mode": 4
        }
      ]
    },
    {
      "name": "Object_2",
      "primitives": [
        {
          "attributes": {
            "NORMAL": 9,
            "POSITION": 8,
            "TEXCOORD_0": 10
          },
          "indices": 11,
          "material": 0,
          "mode": 4
        }
      ]
    },
    {
      "name": "Object_3",
      "primitives": [
        {
          "attributes": {
            "NORMAL": 13,
            "POSITION": 12,
            "TEXCOORD_0": 14
          },
          "indices": 15,
          "material": 0,
          "mode": 4
        }
      ]
    },
    {
      "name": "Object_4",
      "primitives": [
        {
          "attributes": {
            "NORMAL": 17,
            "POSITION": 16,
            "TEXCOORD_0": 18
          },
          "indices": 19,
          "material": 0,
          "mode": 4
        }
      ]
    }
  ],
  "nodes": [
    {
      "children": [
        1
      ],
      "matrix": [
        0.0008091465802901043,
        -1.0517920570265885e-06,
        1.3506861407515978e-09,
        0.0,
        7.04025049353536e-19,
        -1.039086652835079e-06,
        -0.0008091465802901043,
        0.0,
        1.0517929048008319e-06,
        0.000809145905085018,
        -1.0390858050608356e-06,
        0.0,
        0.0,
        0.0,
        0.0,
        1.0
      ],
      "name": "Sketchfab_model"
    },
    {
      "children": [
        2,
        3,
        4,
        5,
        6
      ],
      "name": "MetaQuestProHeadset.obj.cleaner.materialmerger.gles"
    },
    {
      "mesh": 0,
      "name": "Object_2"
    },
    {
      "mesh": 1,
      "name": "Object_3"
    },
    {
      "mesh": 2,
      "name": "Object_4"
    },
    {
      "mesh": 3,
      "name": "Object_5"
    },
    {
      "mesh": 4,
      "name": "Object_6"
    }
  ],
  "samplers": [
    {
      "magFilter": 9729,
      "minFilter": 9987,
      "wrapS": 10497,
      "wrapT": 10497
    }
  ],
  "scene": 0,
  "scenes": [
    {
      "name": "Sketchfab_Scene",
      "nodes": [
        0
      ]
    }
  ],
  "textures": [
    {
      "sampler": 0,
      "source": 0
    },
    {
      "sampler": 0,
      "source": 1
    },
    {
      "sampler": 0,
      "source": 2
    }
  ]
}
