{
  "accessors": [
    {
      "bufferView": 2,
      "componentType": 5126,
      "count": 185,
      "max": [
        -0.0393957793712616,
        0.6293381452560425,
        2.1086416244506836
      ],
      "min": [
        -1.2001166343688965,
        -0.6287269592285156,
        0.08801954984664917
      ],
      "type": "VEC3"
    },
    {
      "bufferView": 2,
      "byteOffset": 2220,
      "componentType": 5126,
      "count": 185,
      "max": [
        1.0,
        1.0,
        0.9163328409194946
      ],
      "min": [
        -1.0,
        -1.0,
        -0.5764403343200684
      ],
      "type": "VEC3"
    },
    {
      "bufferView": 1,
      "componentType": 5126,
      "count": 185,
      "max": [
        0.9980772733688354,
        0.9948115348815918
      ],
      "min": [
        0.0,
        0.094490185379982
      ],
      "type": "VEC2"
    },
    {
      "bufferView": 0,
      "componentType": 5125,
      "count": 297,
      "type": "SCALAR"
    },
    {
      "bufferView": 2,
      "byteOffset": 4440,
      "componentType": 5126,
      "count": 866,
      "max": [
        0.960604190826416,
        0.6293381452560425,
        2.1086416244506836
      ],
      "min": [
        -1.4518970251083374,
        -0.6287269592285156,
        -0.007494211196899414
      ],
      "type": "VEC3"
    },
    {
      "bufferView": 2,
      "byteOffset": 14832,
      "componentType": 5126,
      "count": 866,
      "max": [
        1.0,
        1.0,
        1.0
      ],
      "min": [
        -1.0,
        -1.0,
        -1.0
      ],
      "type": "VEC3"
    },
    {
      "bufferView": 1,
      "byteOffset": 1480,
      "componentType": 5126,
      "count": 866,
      "max": [
        1.0,
        1.0
      ],
      "min": [
        0.0,
        0.0
      ],
      "type": "VEC2"
    },
    {
      "bufferView": 0,
      "byteOffset": 1188,
      "componentType": 5125,
      "count": 1836,
      "type": "SCALAR"
    },
    {
      "bufferView": 2,
      "byteOffset": 25224,
      "componentType": 5126,
      "count": 64,
      "max": [
        -0.0393957793712616,
        0.6293381452560425,
        1.094342827796936
      ],
      "min": [
        -0.5419131517410278,
        -0.6287269592285156,
        0.9884010553359985
      ],
      "type": "VEC3"
    },
    {
      "bufferView": 2,
      "byteOffset": 25992,
      "componentType": 5126,
      "count": 64,
      "max": [
        -0.08677089214324951,
        0.6103149056434631,
        0.9962283372879028
      ],
      "min": [
        -1.0,
        -0.5374479293823242,
        0.0
      ],
      "type": "VEC3"
    },
    {
      "bufferView": 1,
      "byteOffset": 8408,
      "componentType": 5126,
      "count": 64,
      "max": [
        0.9789926409721375,
        0.9022113680839539
      ],
      "min": [
        0.23267529904842377,
        0.44158169627189636
      ],
      "type": "VEC2"
    },
    {
      "bufferView": 0,
      "byteOffset": 8532,
      "componentType": 5125,
      "count": 96,
      "type": "SCALAR"
    },
    {
      "bufferView": 2,
      "byteOffset": 26760,
      "componentType": 5126,
      "count": 160,
      "max": [
        -0.11032506823539734,
        0.530250608921051,
        1.2638801336288452
      ],
      "min": [
        -0.2477581799030304,
        -0.5412164926528931,
        1.1483582258224487
      ],
      "type": "VEC3"
    },
    {
      "bufferView": 2,
      "byteOffset": 28680,
      "componentType": 5126,
      "count": 160,
      "max": [
        0.3726229965686798,
        0.9117401242256165,
        0.8570272922515869
      ],
      "min": [
        -0.6863004565238953,
        -0.9117399454116821,
        -0.8570273518562317
      ],
      "type": "VEC3"
    },
    {
      "bufferView": 1,
      "byteOffset": 8920,
      "componentType": 5126,
      "count": 160,
      "max": [
        0.0,
        0.0
      ],
      "min": [
        0.0,
        0.0
      ],
      "type": "VEC2"
    },
    {
      "bufferView": 0,
      "byteOffset": 8916,
      "componentType": 5125,
      "count": 264,
      "type": "SCALAR"
    },
    {
      "bufferView": 2,
      "byteOffset": 30600,
      "componentType": 5126,
      "count": 24,
      "max": [
        0.010077357292175293,
        0.5,
        0.572627067565918
      ],
      "min": [
        -0.09067544341087341,
        -0.5,
        0.2555880546569824
      ],
      "type": "VEC3"
    },
    {
      "bufferView": 2,
      "byteOffset": 30888,
      "componentType": 5126,
      "count": 24,
      "max": [
        1.0,
        1.0,
        1.0
      ],
      "min": [
        -1.0,
        -1.0,
        -1.0
      ],
      "type": "VEC3"
    },
    {
      "bufferView": 1,
      "byteOffset": 10200,
      "componentType": 5126,
      "count": 24,
      "max": [
        0.875,
        1.0
      ],
      "min": [
        0.125,
        0.0
      ],
      "type": "VEC2"
    },
    {
      "bufferView": 0,
      "byteOffset": 9972,
      "componentType": 5125,
      "count": 36,
      "type": "SCALAR"
    },
    {
      "bufferView": 2,
      "byteOffset": 31176,
      "componentType": 5126,
      "count": 16227,
      "max": [
        0.06756609678268433,
        0.4238908290863037,
        0.7641074657440186
      ],
      "min": [
        -0.11391356587409973,
        -0.4305537939071655,
        -0.08516597747802734
      ],
      "type": "VEC3"
    },
    {
      "bufferView": 2,
      "byteOffset": 225900,
      "componentType": 5126,
      "count": 16227,
      "max": [
        1.0,
        1.0,
        1.0
      ],
      "min": [
        -1.0,
        -1.0,
        -1.0
      ],
      "type": "VEC3"
    },
    {
      "bufferView": 1,
      "byteOffset": 10392,
      "componentType": 5126,
      "count": 16227,
      "max": [
        1.0,
        1.0
      ],
      "min": [
        0.0,
        0.0
      ],
      "type": "VEC2"
    },
    {
      "bufferView": 0,
      "byteOffset": 10116,
      "componentType": 5125,
      "count": 30432,
      "type": "SCALAR"
    },
    {
      "bufferView": 2,
      "byteOffset": 420624,
      "componentType": 5126,
      "count": 528,
      "max": [
        -0.6859014630317688,
        0.4224802255630493,
        1.3132878541946411
      ],
      "min": [
        -1.3093856573104858,
        -0.38709360361099243,
        0.8064815998077393
      ],
      "type": "VEC3"
    },
    {
      "bufferView": 2,
      "byteOffset": 426960,
      "componentType": 5126,
      "count": 528,
      "max": [
        0.9934939742088318,
        0.9990386366844177,
        0.9931257367134094
      ],
      "min": [
        -0.9943172335624695,
        -0.9990090131759644,
        -0.9931143522262573
      ],
      "type": "VEC3"
    },
    {
      "bufferView": 1,
      "byteOffset": 140208,
      "componentType": 5126,
      "count": 528,
      "max": [
        1.0,
        1.0
      ],
      "min": [
        0.0,
        0.0
      ],
      "type": "VEC2"
    },
    {
      "bufferView": 0,
      "byteOffset": 131844,
      "componentType": 5125,
      "count": 804,
      "type": "SCALAR"
    },
    {
      "bufferView": 2,
      "byteOffset": 433296,
      "componentType": 5126,
      "count": 432,
      "max": [
        -0.7099250555038452,
        0.24460327625274658,
        1.2947168350219727
      ],
      "min": [
        -1.2957512140274048,
        -0.2098148763179779,
        0.8187544345855713
      ],
      "type": "VEC3"
    },
    {
      "bufferView": 2,
      "byteOffset": 438480,
      "componentType": 5126,
      "count": 432,
      "max": [
        0.9903501868247986,
        0.9999129772186279,
        0.9972864985466003
      ],
      "min": [
        -0.9880560040473938,
        -0.9998796582221985,
        -0.9908430576324463
      ],
      "type": "VEC3"
    },
    {
      "bufferView": 1,
      "byteOffset": 144432,
      "componentType": 5126,
      "count": 432,
      "max": [
        1.0000001192092896,
        0.9603880643844604
      ],
      "min": [
        0.0,
        0.0
      ],
      "type": "VEC2"
    },
    {
      "bufferView": 0,
      "byteOffset": 135060,
      "componentType": 5125,
      "count": 720,
      "type": "SCALAR"
    }
  ],
  "asset": {
    "extras": {
      "author": "planemovisual (https://sketchfab.com/planemovisual)",
      "license": "CC-BY-4.0 (http://creativecommons.org/licenses/by/4.0/)",
      "source": "https://sketchfab.com/3d-models/sensorama-machine-36cf4acf4a31434098f0d2ff03deeb88",
      "title": "Sensorama Machine"
    },
    "generator": "Sketchfab-12.66.0",
    "version": "2.0"
  },
  "bufferViews": [
    {
      "buffer": 0,
      "byteLength": 137940,
      "name": "floatBufferViews",
      "target": 34963
    },
    {
      "buffer": 0,
      "byteLength": 147888,
      "byteOffset": 137940,
      "byteStride": 8,
      "name": "floatBufferViews",
      "target": 34962
    },
    {
      "buffer": 0,
      "byteLength": 443664,
      "byteOffset": 285828,
      "byteStride": 12,
      "name": "floatBufferViews",
      "target": 34962
    }
  ],
  "buffers": [
    {
      "byteLength": 729492,
      "uri": "scene.bin"
    }
  ],
  "materials": [
    {
      "doubleSided": true,
      "name": "Sensorma_blanco",
      "pbrMetallicRoughness": {
        "baseColorFactor": [
          0.8,
          0.8,
          0.8,
          1.0
        ],
        "metallicFactor": 0.0,
        "roughnessFactor": 0.8211145618000169
      }
    },
    {
      "doubleSided": true,
      "name": "Semsorma_negro",
      "pbrMetallicRoughness": {
        "baseColorFactor": [
          0.0,
          0.0,
          0.0,
          1.0
        ],
        "metallicFactor": 0.0
      }
    },
    {
      "doubleSided": true,
      "name": "Sensorama_rojo",
      "pbrMetallicRoughness": {
        "baseColorFactor": [
          0.8,
          0.000929004,
          0.00182224,
          1.0
        ],
        "metallicFactor": 0.0,
        "roughnessFactor": 0.961790967200411
      }
    },
    {
      "doubleSided": true,
      "name": "Sensorma-azul",
      "pbrMetallicRoughness": {
        "baseColorFactor": [
          0.0528569,
          0.112006,
          0.8,
          1.0
        ],
        "metallicFactor": 0.0,
        "roughnessFactor": 0.9666593167917199
      }
    },
    {
      "doubleSided": true,
      "name": "SVGMat.023",
      "pbrMetallicRoughness": {
        "baseColorFactor": [
          0.291771,
          0.527115,
          0.012983,
          1.0
        ],
        "metallicFactor": 0.0,
        "roughnessFactor": 0.8922321181798203
      }
    },
    {
      "doubleSided": true,
      "name": "SVGMat.024",
      "pbrMetallicRoughness": {
        "baseColorFactor": [
          0.000303527,
          0.283149,
          0.496933,
          1.0
        ],
        "metallicFactor": 0.0,
        "roughnessFactor": 0.9415916091236377
      }
    }
  ],
  "meshes": [
    {
      "name": "Sensorama_box_Sensorma_blanco_0",
      "primitives": [
        {
          "attributes": {
            "NORMAL": 1,
            "POSITION": 0,
            "TEXCOORD_0": 2
          },
          "indices": 3,
          "material": 0,
          "mode": 4
        }
      ]
    },
    {
      "name": "Sensorama_box_Semsorma_negro_0",
      "primitives": [
        {
          "attributes": {
            "NORMAL": 5,
            "POSITION": 4,
            "TEXCOORD_0": 6
          },
          "indices": 7,
          "material": 1,
          "mode": 4
        }
      ]
    },
    {
      "name": "Sensorama_box_Sensorama_rojo_0",
      "primitives": [
        {
          "attributes": {
            "NORMAL": 9,
            "POSITION": 8,
            "TEXCOORD_0": 10
          },
          "indices": 11,
          "material": 2,
          "mode": 4
        }
      ]
    },
    {
      "name": "Sensorama_box_Sensorma-azul_0",
      "primitives": [
        {
          "attributes": {
            "NORMAL": 13,
            "POSITION": 12,
            "TEXCOORD_0": 14
          },
          "indices": 15,
          "material": 3,
          "mode": 4
        }
      ]
    },
    {
      "name": "Cartel_Semsorma_negro_0",
      "primitives": [
        {
          "attributes": {
            "NORMAL": 17,
            "POSITION": 16,
            "TEXCOORD_0": 18
          },
          "indices": 19,
          "material": 1,
          "mode": 4
        }
      ]
    },
    {
      "name": "Cartel_Sensorma_blanco_0",
      "primitives": [
        {
          "attributes": {
            "NORMAL": 21,
            "POSITION": 20,
            "TEXCOORD_0": 22
          },
          "indices": 23,
          "material": 0,
          "mode": 4
        }
      ]
    },
    {
      "name": "Lounge Chair_SVGMat.023_0",
      "primitives": [
        {
          "attributes": {
            "NORMAL": 25,
            "POSITION": 24,
            "TEXCOORD_0": 26
          },
          "indices": 27,
          "material": 4,
          "mode": 4
        }
      ]
    },
    {
      "name": "Lounge Chair_SVGMat.024_0",
      "primitives": [
        {
          "attributes": {
            "NORMAL": 29,
            "POSITION": 28,
            "TEXCOORD_0": 30
          },
          "indices": 31,
          "material": 5,
          "mode": 4
        }
      ]
    }
  ],
  "nodes": [
    {
      "children": [
        1
      ],
      "matrix": [
        1.0,
        0.0,
        0.0,
        0.0,
        0.0,
        2.220446049250313e-16,
        -1.0,
        0.0,
        0.0,
        1.0,
        2.220446049250313e-16,
        0.0,
        0.0,
        0.0,
        0.0,
        1.0
      ],
      "name": "Sketchfab_model"
    },
    {
      "children": [
        2
      ],
      "matrix": [
        0.009999999776482582,
        0.0,
        0.0,
        0.0,
        0.0,
        0.0,
        0.009999999776482582,
        0.0,
        0.0,
        -0.009999999776482582,
        0.0,
        0.0,
        0.0,
        0.0,
        0.0,
        1.0
      ],
      "name": "cff272880e1f4cd6aebd43d113a7a944.fbx"
    },
    {
      "children": [
        3,
        8,
        11
      ],
      "name": "RootNode"
    },
    {
      "children": [
        4,
        5,
        6,
        7
      ],
      "matrix": [
        90.36705780029297,
        0.0,
        0.0,
        0.0,
        0.0,
        -1.4722662451464629e-05,
        -90.36705780029178,
        0.0,
        0.0,
        90.36705780029178,
        -1.4722662451464629e-05,
        0.0,
        0.0,
        0.0,
        0.0,
        1.0
      ],
      "name": "Sensorama_box"
    },
    {
      "mesh": 0,
      "name": "Sensorama_box_Sensorma_blanco_0"
    },
    {
      "mesh": 1,
      "name": "Sensorama_box_Semsorma_negro_0"
    },
    {
      "mesh": 2,
      "name": "Sensorama_box_Sensorama_rojo_0"
    },
    {
      "mesh": 3,
      "name": "Sensorama_box_Sensorma-azul_0"
    },
    {
      "children": [
        9,
        10
      ],
      "matrix": [
        90.36705780029297,
        0.0,
        0.0,
        0.0,
        0.0,
        -1.4722662451464629e-05,
        -90.36705780029178,
        0.0,
        0.0,
        90.36705780029178,
        -1.4722662451464629e-05,
        0.0,
        26.63949203491211,
        196.90658569335938,
        -0.027616426348686218,
        1.0
      ],
      "name": "Cartel"
    },
    {
      "mesh": 4,
      "name": "Cartel_Semsorma_negro_0"
    },
    {
      "mesh": 5,
      "name": "Cartel_Sensorma_blanco_0"
    },
    {
      "children": [
        12,
        13
      ],
      "matrix": [
        90.36705780029297,
        0.0,
        0.0,
        0.0,
        0.0,
        -1.4722662451464629e-05,
        -90.36705780029178,
        0.0,
        0.0,
        90.36705780029178,
        -1.4722662451464629e-05,
        0.0,
        0.0,
        0.0,
        0.0,
        1.0
      ],
      "name": "Lounge Chair"
    },
    {
      "mesh": 6,
      "name": "Lounge Chair_SVGMat.023_0"
    },
    {
      "mesh": 7,
      "name": "Lounge Chair_SVGMat.024_0"
    }
  ],
  "scene": 0,
  "scenes": [
    {
      "name": "Sketchfab_Scene",
      "nodes": [
        0
      ]
    }
  ]
}
